<svg width="25" height="24" viewBox="0 0 25 24" fill="none" xmlns="http://www.w3.org/2000/svg">
<path d="M4.66143 5.73616C4.69699 5.09612 4.79367 4.5278 4.9352 4.02449C5.8585 0.741011 10.9188 1.30342 10.2449 4.647C10.1685 5.02579 10.0467 5.39493 9.87611 5.73616C8.83318 7.82204 4.4007 10.4294 4.66143 5.73616Z" fill="#304057" stroke="#304057"/>
<path d="M12.9029 5.21468C12.9384 4.57463 13.0351 4.00631 13.1767 3.50301C14.1 0.219526 19.1603 0.781936 18.4863 4.12551C18.41 4.5043 18.2882 4.87345 18.1176 5.21468C17.0746 7.30055 12.6422 9.90789 12.9029 5.21468Z" fill="#304057" stroke="#304057"/>
<path d="M17.4205 9.12546C17.789 8.60095 18.1715 8.16964 18.5577 7.81722C21.0772 5.5181 25.0753 8.6705 22.7358 11.1525C22.4707 11.4336 22.1722 11.6826 21.847 11.8821C19.8591 13.1014 14.7182 12.9715 17.4205 9.12546Z" fill="#304057" stroke="#304057"/>
<path d="M17.0099 16.0812C17.5021 15.6705 17.9836 15.3534 18.4481 15.1135C21.4785 13.5481 24.52 17.6313 21.6158 19.4199C21.2868 19.6226 20.9338 19.7854 20.5679 19.8935C18.3314 20.5542 13.401 19.0928 17.0099 16.0812Z" fill="#304057" stroke="#304057"/>
<path d="M2.72315 11.4724C1.95564 11.7921 1.49539 12.2018 1.24616 12.6413C0.279675 14.3454 2.72362 16.2806 4.50672 17.0922C7.20875 18.3219 7.16046 22.0508 9.91523 23.1574C11.0496 23.6131 12.2425 23.328 12.6311 22.1624C15.2384 16.1656 14.1955 13.0368 11.8489 11.2116C9.50225 9.38648 5.85196 10.1687 2.72315 11.4724Z" fill="#304057" stroke="#304057"/>
</svg>
