<svg width="28" height="28" viewBox="0 0 28 28" fill="none" xmlns="http://www.w3.org/2000/svg">
<path d="M18.277 2.96948C18.5934 3.28593 18.7711 3.71508 18.7711 4.16254C18.7711 4.61001 18.5934 5.03915 18.277 5.3556L9.92392 13.7087L18.277 22.0619C18.5844 22.3801 18.7545 22.8064 18.7507 23.2488C18.7468 23.6913 18.5694 24.1145 18.2565 24.4274C17.9436 24.7403 17.5204 24.9178 17.0779 24.9216C16.6354 24.9255 16.2092 24.7554 15.8909 24.448L6.34473 14.9018C6.02837 14.5853 5.85065 14.1562 5.85065 13.7087C5.85065 13.2613 6.02837 12.8321 6.34473 12.5157L15.8909 2.96948C16.2074 2.65312 16.6365 2.4754 17.084 2.4754C17.5314 2.4754 17.9606 2.65312 18.277 2.96948V2.96948Z" fill="#304057"/>
</svg>
