<svg width="27" height="27" viewBox="0 0 27 27" fill="none" xmlns="http://www.w3.org/2000/svg">
<path d="M8.93194 24.2393C8.61559 23.9228 8.43787 23.4937 8.43787 23.0462C8.43787 22.5987 8.61559 22.1696 8.93194 21.8531L17.2851 13.5L8.93194 5.14689C8.62455 4.82862 8.45446 4.40235 8.45831 3.9599C8.46215 3.51744 8.63962 3.09419 8.9525 2.78132C9.26538 2.46844 9.68862 2.29097 10.1311 2.28712C10.5735 2.28328 10.9998 2.45337 11.3181 2.76076L20.8643 12.3069C21.1806 12.6234 21.3583 13.0525 21.3583 13.5C21.3583 13.9475 21.1806 14.3766 20.8643 14.6931L11.3181 24.2393C11.0016 24.5556 10.5725 24.7333 10.125 24.7333C9.67754 24.7333 9.2484 24.5556 8.93194 24.2393Z" fill="#304057"/>
</svg>
